<svg width="14" height="12" viewBox="0 0 14 12" fill="none" xmlns="http://www.w3.org/2000/svg">
<path fill-rule="evenodd" clip-rule="evenodd" d="M12.7099 5.29C12.5222 5.10069 12.2666 4.9942 11.9999 4.9942C11.7333 4.9942 11.4777 5.10069 11.2899 5.29L7.99994 8.59V1C7.99994 0.447715 7.55223 0 6.99994 0C6.44766 0 5.99994 0.447715 5.99994 1V8.59L2.70994 5.29C2.31782 4.89788 1.68206 4.89788 1.28994 5.29C0.897819 5.68212 0.897819 6.31788 1.28994 6.71L6.28994 11.71C6.38504 11.801 6.49719 11.8724 6.61994 11.92C6.86198 12.027 7.1379 12.027 7.37994 11.92C7.50269 11.8724 7.61484 11.801 7.70994 11.71L12.7099 6.71C12.8993 6.52223 13.0057 6.26664 13.0057 6C13.0057 5.73336 12.8993 5.47777 12.7099 5.29Z" fill="#C99B02"/>
</svg>
