<svg width="24" height="24" viewBox="0 0 24 24" fill="none" xmlns="http://www.w3.org/2000/svg">
<path fill-rule="evenodd" clip-rule="evenodd" d="M17.71 11.29C17.5222 11.1007 17.2666 10.9942 17 10.9942C16.7334 10.9942 16.4778 11.1007 16.29 11.29L13 14.59V7C13 6.44772 12.5523 6 12 6C11.4477 6 11 6.44772 11 7V14.59L7.71 11.29C7.31788 10.8979 6.68212 10.8979 6.29 11.29C5.89788 11.6821 5.89788 12.3179 6.29 12.71L11.29 17.71C11.3851 17.801 11.4973 17.8724 11.62 17.92C11.862 18.027 12.138 18.027 12.38 17.92C12.5028 17.8724 12.6149 17.801 12.71 17.71L17.71 12.71C17.8993 12.5222 18.0058 12.2666 18.0058 12C18.0058 11.7334 17.8993 11.4778 17.71 11.29Z" fill="#006296"/>
</svg>
