<svg width="50" height="50" viewBox="0 0 50 50" fill="none" xmlns="http://www.w3.org/2000/svg">
<rect x="0.5" y="0.5" width="48.5913" height="49" rx="4.5" stroke="#F5FAFF"/>
<path fill-rule="evenodd" clip-rule="evenodd" d="M37.75 15.0833V34.9167C37.75 35.6681 37.4515 36.3888 36.9201 36.9201C36.3888 37.4515 35.6681 37.75 34.9167 37.75H29.6042C29.4163 37.75 29.2361 37.6754 29.1033 37.5425C28.9705 37.4097 28.8958 37.2295 28.8958 37.0417V28.5417H32.2108C32.3741 28.5417 32.5324 28.4853 32.6589 28.3821C32.7854 28.2788 32.8723 28.135 32.905 27.975L33.415 25.425C33.4254 25.3741 33.4245 25.3216 33.4123 25.2711C33.4001 25.2206 33.377 25.1734 33.3446 25.1329C33.3121 25.0923 33.2712 25.0594 33.2246 25.0364C33.178 25.0135 33.1269 25.001 33.075 25H28.8958V20.3958C28.8958 20.3019 28.9331 20.2118 28.9996 20.1454C29.066 20.079 29.1561 20.0417 29.25 20.0417H32.7917C32.9795 20.0417 33.1597 19.967 33.2925 19.8342C33.4254 19.7014 33.5 19.5212 33.5 19.3333V17.2083C33.5 17.0205 33.4254 16.8403 33.2925 16.7075C33.1597 16.5746 32.9795 16.5 32.7917 16.5H29.25C28.1228 16.5 27.0418 16.9478 26.2448 17.7448C25.4478 18.5418 25 19.6228 25 20.75V25H23.2575C23.0696 25 22.8895 25.0746 22.7566 25.2075C22.6238 25.3403 22.5492 25.5205 22.5492 25.7083V27.8333C22.5492 28.0212 22.6238 28.2014 22.7566 28.3342C22.8895 28.467 23.0696 28.5417 23.2575 28.5417H25V37.0417C25 37.2295 24.9254 37.4097 24.7925 37.5425C24.6597 37.6754 24.4795 37.75 24.2917 37.75H15.0833C14.3319 37.75 13.6112 37.4515 13.0799 36.9201C12.5485 36.3888 12.25 35.6681 12.25 34.9167V15.0833C12.25 14.3319 12.5485 13.6112 13.0799 13.0799C13.6112 12.5485 14.3319 12.25 15.0833 12.25H34.9167C35.6681 12.25 36.3888 12.5485 36.9201 13.0799C37.4515 13.6112 37.75 14.3319 37.75 15.0833Z" fill="#F5FAFF"/>
</svg>
