<svg width="50" height="50" viewBox="0 0 50 50" fill="none" xmlns="http://www.w3.org/2000/svg">
<path d="M33.8081 18.3105C34.9348 18.3105 35.8481 17.3971 35.8481 16.2705C35.8481 15.1438 34.9348 14.2305 33.8081 14.2305C32.6815 14.2305 31.7681 15.1438 31.7681 16.2705C31.7681 17.3971 32.6815 18.3105 33.8081 18.3105Z" fill="#F5FAFF"/>
<path d="M25 33.5C20.3122 33.5 16.5 29.6877 16.5 25C16.5 20.3122 20.3122 16.5 25 16.5C29.6877 16.5 33.5 20.3122 33.5 25C33.5 29.6877 29.6877 33.5 25 33.5ZM25 20.75C22.6561 20.75 20.75 22.6561 20.75 25C20.75 27.3439 22.6561 29.25 25 29.25C27.3439 29.25 29.25 27.3439 29.25 25C29.25 22.6561 27.3439 20.75 25 20.75Z" fill="#F5FAFF"/>
<path d="M33.5 42H16.5C12.131 42 8 37.869 8 33.5V16.5C8 12.131 12.131 8 16.5 8H33.5C37.869 8 42 12.131 42 16.5V33.5C42 37.869 37.869 42 33.5 42ZM16.5 12.25C14.5131 12.25 12.25 14.5131 12.25 16.5V33.5C12.25 35.5251 14.4749 37.75 16.5 37.75H33.5C35.4869 37.75 37.75 35.4869 37.75 33.5V16.5C37.75 14.5131 35.4869 12.25 33.5 12.25H16.5Z" fill="#F5FAFF"/>
<rect x="0.5" y="0.5" width="48.5913" height="49" rx="4.5" stroke="#F5FAFF"/>
</svg>
