<svg width="50" height="50" viewBox="0 0 50 50" fill="none" xmlns="http://www.w3.org/2000/svg">
<path d="M18.625 21.4583V35.625C18.625 35.8129 18.5504 35.993 18.4176 36.1259C18.2847 36.2587 18.1046 36.3333 17.9167 36.3333H14.375C14.1872 36.3333 14.007 36.2587 13.8742 36.1259C13.7413 35.993 13.6667 35.8129 13.6667 35.625V21.4583C13.6667 21.2705 13.7413 21.0903 13.8742 20.9575C14.007 20.8246 14.1872 20.75 14.375 20.75H17.9167C18.1046 20.75 18.2847 20.8246 18.4176 20.9575C18.5504 21.0903 18.625 21.2705 18.625 21.4583ZM37.75 26.9975C37.7737 25.5087 37.288 24.0566 36.3733 22.8817C35.4587 21.7068 34.17 20.8797 32.7209 20.5375C31.7349 20.3252 30.7124 20.352 29.7388 20.6157C28.7653 20.8794 27.8691 21.3724 27.125 22.0533V21.4583C27.125 21.2705 27.0504 21.0903 26.9176 20.9575C26.7847 20.8246 26.6046 20.75 26.4167 20.75H22.875C22.6872 20.75 22.507 20.8246 22.3742 20.9575C22.2413 21.0903 22.1667 21.2705 22.1667 21.4583V35.625C22.1667 35.8129 22.2413 35.993 22.3742 36.1259C22.507 36.2587 22.6872 36.3333 22.875 36.3333H26.4167C26.6046 36.3333 26.7847 36.2587 26.9176 36.1259C27.0504 35.993 27.125 35.8129 27.125 35.625V27.635C27.1081 26.9457 27.3345 26.2726 27.7646 25.7337C28.1947 25.1948 28.8009 24.8247 29.4767 24.6883C29.887 24.6175 30.3079 24.638 30.7093 24.7483C31.1108 24.8586 31.483 25.056 31.7996 25.3265C32.1161 25.5971 32.369 25.934 32.5405 26.3134C32.712 26.6928 32.7978 27.1054 32.7917 27.5217V35.625C32.7917 35.8129 32.8663 35.993 32.9992 36.1259C33.132 36.2587 33.3122 36.3333 33.5 36.3333H37.0417C37.2296 36.3333 37.4097 36.2587 37.5426 36.1259C37.6754 35.993 37.75 35.8129 37.75 35.625V26.9975ZM15.7917 12.25C15.2313 12.25 14.6835 12.4162 14.2176 12.7275C13.7517 13.0388 13.3885 13.4813 13.174 13.9991C12.9596 14.5168 12.9035 15.0865 13.0128 15.6361C13.1221 16.1857 13.392 16.6906 13.7882 17.0868C14.1845 17.4831 14.6893 17.7529 15.239 17.8622C15.7886 17.9715 16.3583 17.9154 16.876 17.701C17.3937 17.4865 17.8362 17.1234 18.1475 16.6574C18.4589 16.1915 18.625 15.6437 18.625 15.0833C18.625 14.3319 18.3265 13.6112 17.7952 13.0799C17.2638 12.5485 16.5432 12.25 15.7917 12.25Z" fill="#F5FAFF"/>
<rect x="0.5" y="0.5" width="48.5913" height="49" rx="4.5" stroke="#F5FAFF"/>
</svg>
