<svg width="27" height="22" viewBox="0 0 27 22" fill="none" xmlns="http://www.w3.org/2000/svg">
<path fill-rule="evenodd" clip-rule="evenodd" d="M11.5487 18C5.70851 18 0.974121 13.9706 0.974121 9C0.974121 4.02944 5.70851 0 11.5487 0C17.3888 0 22.1232 4.02944 22.1232 9C22.1232 13.9706 17.3888 18 11.5487 18ZM11.5487 16.0001C16.091 16.0001 19.7733 12.8661 19.7733 9.00008C19.7733 5.13409 16.091 2.00008 11.5487 2.00008C7.0063 2.00008 3.324 5.13409 3.324 9.00008C3.324 12.8661 7.0063 16.0001 11.5487 16.0001ZM26.4789 21.707C26.9378 21.3165 26.9378 20.6833 26.4789 20.2928L21.7791 16.2928C21.3203 15.9023 20.5763 15.9023 20.1175 16.2928C19.6586 16.6833 19.6586 17.3165 20.1175 17.707L24.8173 21.707C25.2761 22.0975 26.0201 22.0975 26.4789 21.707Z" fill="#6F8EB3"/>
</svg>
