<svg width="50" height="50" viewBox="0 0 50 50" fill="none" xmlns="http://www.w3.org/2000/svg">
<path d="M42 14.375C40.725 15.0125 39.45 15.225 37.9625 15.4375C39.45 14.5875 40.5125 13.3125 40.9375 11.6125C39.6625 12.4625 38.175 12.8875 36.475 13.3125C35.2 12.0375 33.2875 11.1875 31.375 11.1875C27.7625 11.1875 24.575 14.375 24.575 18.2C24.575 18.8375 24.575 19.2625 24.7875 19.6875C19.05 19.475 13.7375 16.7125 10.3375 12.4625C9.7 13.525 9.4875 14.5875 9.4875 16.075C9.4875 18.4125 10.7625 20.5375 12.675 21.8125C11.6125 21.8125 10.55 21.3875 9.4875 20.9625C9.4875 24.3625 11.825 27.125 15.0125 27.7625C14.375 27.975 13.7375 27.975 13.1 27.975C12.675 27.975 12.25 27.975 11.825 27.7625C12.675 30.525 15.225 32.65 18.4125 32.65C16.075 34.5625 13.1 35.625 9.7 35.625H8C11.1875 37.5375 14.8 38.8125 18.625 38.8125C31.375 38.8125 38.3875 28.1875 38.3875 19.05V18.2C39.875 17.1375 41.15 15.8625 42 14.375Z" fill="#F5FAFF"/>
<rect x="0.5" y="0.5" width="48.5913" height="49" rx="4.5" stroke="#F5FAFF"/>
</svg>
