<svg width="186" height="80" viewBox="0 0 186 80" fill="none" xmlns="http://www.w3.org/2000/svg">
<path d="M0 0.999999C0 0.447714 0.447715 0 1 0H185C185.552 0 186 0.447715 186 1V79C186 79.5523 185.552 80 185 80H0.999999C0.447714 80 0 79.5523 0 79V0.999999Z" fill="#EDF2F7"/>
<path fill-rule="evenodd" clip-rule="evenodd" d="M104.667 23.3333H81.3333C78.5718 23.3333 76.3333 25.5718 76.3333 28.3333V51.6666C76.3333 54.428 78.5718 56.6666 81.3333 56.6666H104.667C104.941 56.6628 105.214 56.6349 105.483 56.5832L105.983 56.4666H106.1H106.183L106.8 56.2332L107.017 56.1166C107.183 56.0166 107.367 55.9333 107.533 55.8166C107.756 55.6528 107.967 55.4747 108.167 55.2833L108.283 55.1332C108.447 54.9674 108.597 54.7891 108.733 54.5999L108.883 54.3832C109 54.1977 109.1 54.0025 109.183 53.7999C109.229 53.7199 109.268 53.6363 109.3 53.5499C109.383 53.3499 109.433 53.1333 109.5 52.9166V52.6666C109.594 52.3409 109.65 52.0053 109.667 51.6666V28.3333C109.667 25.5718 107.428 23.3333 104.667 23.3333ZM81.3333 53.3333C80.4128 53.3333 79.6666 52.5871 79.6666 51.6666V44.4833L85.1499 38.9833C85.4629 38.6678 85.8889 38.4903 86.3333 38.4903C86.7777 38.4903 87.2037 38.6678 87.5166 38.9833L101.85 53.3333H81.3333ZM106.333 51.6666C106.332 51.8721 106.292 52.0755 106.217 52.2666C106.179 52.3478 106.134 52.4259 106.083 52.4999C106.039 52.5705 105.989 52.6374 105.933 52.6999L97.0166 43.7833L98.4833 42.3166C98.7962 42.0011 99.2222 41.8236 99.6666 41.8236C100.111 41.8236 100.537 42.0011 100.85 42.3166L106.333 47.8166V51.6666ZM106.333 43.0999L103.2 39.9999C101.219 38.1205 98.114 38.1205 96.1333 39.9999L94.6666 41.4665L89.8666 36.6665C87.8859 34.7871 84.7806 34.7871 82.7999 36.6665L79.6666 39.7665V28.3332C79.6666 27.4127 80.4128 26.6665 81.3333 26.6665H104.667C105.587 26.6665 106.333 27.4127 106.333 28.3332V43.0999Z" fill="#A0AEC0"/>
</svg>
