<svg width="370" height="518" viewBox="0 0 370 518" fill="none" xmlns="http://www.w3.org/2000/svg">
<path d="M-51 -32C-51 -32.5523 -50.5523 -33 -50 -33H420C420.552 -33 421 -32.5523 421 -32V528C421 528.552 420.552 529 420 529H-50C-50.5523 529 -51 528.552 -51 528V-32Z" fill="#EDF2F7"/>
<path fill-rule="evenodd" clip-rule="evenodd" d="M196.667 231.333H173.333C170.572 231.333 168.333 233.572 168.333 236.333V259.667C168.333 262.428 170.572 264.667 173.333 264.667H196.667C196.941 264.663 197.214 264.635 197.483 264.583L197.983 264.467H198.1H198.183L198.8 264.233L199.017 264.117C199.183 264.017 199.367 263.933 199.533 263.817C199.756 263.653 199.967 263.475 200.167 263.283L200.283 263.133C200.447 262.967 200.597 262.789 200.733 262.6L200.883 262.383C201 262.198 201.1 262.003 201.183 261.8C201.229 261.72 201.268 261.636 201.3 261.55C201.383 261.35 201.433 261.133 201.5 260.917V260.667C201.595 260.341 201.65 260.005 201.667 259.667V236.333C201.667 233.572 199.428 231.333 196.667 231.333ZM173.333 261.333C172.413 261.333 171.667 260.587 171.667 259.667V252.483L177.15 246.983C177.463 246.668 177.889 246.49 178.333 246.49C178.778 246.49 179.204 246.668 179.517 246.983L193.85 261.333H173.333ZM198.333 259.667C198.332 259.872 198.292 260.076 198.217 260.267C198.179 260.348 198.134 260.426 198.083 260.5C198.039 260.57 197.989 260.637 197.933 260.7L189.017 251.783L190.483 250.317C190.796 250.001 191.222 249.824 191.667 249.824C192.111 249.824 192.537 250.001 192.85 250.317L198.333 255.817V259.667ZM198.333 251.1L195.2 248C193.219 246.12 190.114 246.12 188.133 248L186.667 249.467L181.867 244.667C179.886 242.787 176.781 242.787 174.8 244.667L171.667 247.767V236.333C171.667 235.413 172.413 234.667 173.333 234.667H196.667C197.587 234.667 198.333 235.413 198.333 236.333V251.1Z" fill="#A0AEC0"/>
</svg>
